<?xml version="1.0" encoding="UTF-8"?>
<svg id="_Слой_1" data-name="Слой 1" xmlns="http://www.w3.org/2000/svg" xmlns:xlink="http://www.w3.org/1999/xlink" viewBox="0 0 15.64 15.64">
  <defs>
    <style>
      .cls-1 {
        fill: url(#_Безымянный_градиент_187-3);
      }

      .cls-2 {
        fill: url(#_Безымянный_градиент_187);
      }

      .cls-3 {
        fill: url(#_Безымянный_градиент_187-2);
      }
    </style>
    <linearGradient id="_Безымянный_градиент_187" data-name="Безымянный градиент 187" x1="-.07" y1="14.9" x2="11.37" y2="3.47" gradientUnits="userSpaceOnUse">
      <stop offset="0" stop-color="#173d9b"/>
      <stop offset="1" stop-color="#7241a4"/>
    </linearGradient>
    <linearGradient id="_Безымянный_градиент_187-2" data-name="Безымянный градиент 187" x1="-.01" y1="15.65" x2="13.19" y2="2.45" xlink:href="#_Безымянный_градиент_187"/>
    <linearGradient id="_Безымянный_градиент_187-3" data-name="Безымянный градиент 187" x1=".36" y1="14.59" x2="10.69" y2="4.25" xlink:href="#_Безымянный_градиент_187"/>
  </defs>
  <path class="cls-2" d="m10.8,7.05c.51,0,.95-.18,1.3-.53.35-.35.53-.78.53-1.3s-.18-.95-.53-1.3c-.36-.35-.79-.53-1.3-.53h-5.96c-.52,0-.95.18-1.3.53-.36.36-.53.81-.53,1.36v8.68c.17.14.35.26.53.39V5.34c0-.42.13-.75.39-1.02.26-.26.56-.39.92-.39h5.96c.36,0,.66.13.92.38.26.25.39.56.39.91s-.13.66-.39.91c-.26.26-.56.38-.92.38h-4.67v2.61h2.31c.36,0,.66.13.92.38.26.25.39.56.39.91s-.13.66-.39.91c-.26.26-.57.38-.92.38h-2.31v3.74c.17.04.35.07.53.09v-3.3h1.78c.51,0,.95-.18,1.3-.53.36-.35.53-.78.53-1.3s-.18-.95-.53-1.3c-.35-.35-.79-.53-1.3-.53h-1.78v-1.54h4.15Z"/>
  <path class="cls-3" d="m7.82,0C3.5,0,0,3.5,0,7.82c0,2.26.96,4.28,2.49,5.71V5.33c0-.34.06-.66.18-.96.12-.3.29-.56.5-.78.21-.22.46-.39.74-.51s.59-.18.92-.18h5.96c.33,0,.64.06.92.18.28.12.53.29.74.5s.38.46.5.74.18.58.18.9-.06.64-.18.92c-.12.28-.29.53-.5.74-.21.21-.46.38-.74.5-.28.12-.59.18-.92.18h-3.63v.51h1.27c.33,0,.64.06.92.18.28.12.53.29.74.5.21.21.38.46.5.74s.18.58.18.9-.06.64-.18.92c-.12.28-.29.53-.5.74-.21.21-.46.38-.74.5-.28.12-.59.18-.92.18h-1.27v2.85c.22.02.43.03.65.03,4.32,0,7.82-3.5,7.82-7.82S12.14,0,7.82,0Z"/>
  <path class="cls-1" d="m10.8,6.01c.22,0,.41-.08.56-.23.15-.15.23-.34.23-.56,0-.21-.08-.39-.23-.54-.15-.15-.34-.23-.56-.23h-5.96c-.22,0-.41.08-.56.24-.15.16-.23.36-.23.61v9.38c.17.09.34.17.51.25V5.22c0-.07.03-.13.08-.18.05-.05.11-.07.19-.07h5.95c.07,0,.14.02.19.07.06.05.08.11.08.18s-.03.14-.08.18c-.06.05-.12.07-.19.07h-5.71v4.68h3.34c.07,0,.14.02.19.07.06.05.08.11.08.18s-.03.14-.08.18c-.06.05-.12.07-.19.07h-3.34v4.47c.18.07.35.13.53.18v-4.12h2.82c.22,0,.41-.08.56-.23.15-.15.23-.34.23-.56,0-.21-.08-.39-.23-.54-.15-.15-.34-.23-.56-.23h-2.82v-3.63h5.19Z"/>
</svg>