<?xml version="1.0" encoding="UTF-8"?><svg id="_лой_2" xmlns="http://www.w3.org/2000/svg" viewBox="0 0 563.74 123.8"><defs><style>.cls-1{fill:#000045;}.cls-2{fill:#fff;}</style></defs><g id="_лой_1-2"><g><g><path class="cls-1" d="M0,28.26H16.59V61h.22c1.65-2.86,3.41-5.49,5.16-8.13l16.7-24.61h20.65l-24.5,31.53,25.71,42.52h-19.45l-18.24-31.97-6.26,7.8v24.17H0V28.26Z"/><path class="cls-1" d="M86.9,28.26v42.52c0,12.85,4.94,19.34,13.4,19.34s13.62-6.15,13.62-19.34V28.26h16.7v41.53c0,22.85-11.54,33.73-30.87,33.73s-29.55-10.44-29.55-33.95V28.26h16.7Z"/><path class="cls-1" d="M147.87,29.25c5.38-.88,13.29-1.54,22.3-1.54,10.99,0,18.68,1.65,23.95,5.82,4.5,3.52,6.92,8.79,6.92,15.6,0,9.34-6.7,15.82-13.07,18.13v.33c5.16,2.09,8.02,6.92,9.89,13.73,2.31,8.46,4.5,18.13,5.93,20.98h-17.14c-1.1-2.2-2.97-8.13-5.05-17.25-2.09-9.34-5.27-11.76-12.19-11.87h-4.94v29.11h-16.59V29.25Zm16.59,31.86h6.59c8.35,0,13.29-4.17,13.29-10.66s-4.61-10.22-12.3-10.22c-4.06,0-6.37,.22-7.58,.55v20.32Z"/><path class="cls-1" d="M216.32,85.06c4.39,2.31,11.43,4.61,18.57,4.61,7.69,0,11.76-3.19,11.76-8.02s-3.52-7.25-12.41-10.33c-12.3-4.39-20.43-11.21-20.43-21.97,0-12.63,10.66-22.19,28.02-22.19,8.46,0,14.5,1.65,18.9,3.74l-3.74,13.4c-2.86-1.43-8.24-3.52-15.38-3.52s-10.77,3.41-10.77,7.14c0,4.72,4.06,6.81,13.73,10.44,13.07,4.83,19.12,11.65,19.12,22.08,0,12.41-9.45,22.96-29.77,22.96-8.46,0-16.81-2.31-20.98-4.61l3.41-13.73Z"/><path class="cls-1" d="M405.76,93.41c0-6.04,4.06-10.22,9.89-10.22s9.67,4.06,9.78,10.22c0,5.82-3.96,10.11-10,10.11-5.6,0-9.67-4.28-9.67-10.11Z"/><path class="cls-1" d="M438.83,28.26h16.59V61h.22c1.65-2.86,3.41-5.49,5.16-8.13l16.7-24.61h20.65l-24.5,31.53,25.71,42.52h-19.45l-18.24-31.97-6.26,7.8v24.17h-16.59V28.26Z"/><path class="cls-1" d="M506.28,93.3l35.27-50.76v-.44h-32.08v-13.84h53.72v9.67l-34.5,50.1v.44h35.05v13.84h-57.46v-9.01Z"/></g><circle class="cls-1" cx="338" cy="61.9" r="61.9"/><path class="cls-2" d="M356.71,26.91c.88,.6,1.33,1.23,1.33,1.88,0,1.26-1.21,1.98-3.63,2.16-4.28,5.67-8.16,13.44-11.65,23.29-3.67,10.37-6.07,20.69-7.18,30.96-.33,2.93-.05,5.16,.84,6.69,.32,.56,.49,1.14,.49,1.74,0,1.39-.72,2.09-2.16,2.09-.7,0-1.56-.23-2.58-.7-3.02-1.3-4.79-2.16-5.3-2.58-1.12-.84-1.67-2.14-1.67-3.91,0-1.3,.25-3.28,.77-5.93,3.25-15.81,7.25-28.43,11.99-37.87-4.56,5.07-9.97,10.83-16.25,17.29-.6,.51-1.3,.77-2.09,.77-1.58,0-2.37-.67-2.37-2.02,0-.7,.39-1.37,1.19-2.02,8.37-6.69,16.13-16.5,23.29-29.43,.7-1.26,1.21-1.98,1.53-2.16,.42-.19,1.19-.07,2.3,.35,1.12-2.42,2.51-3.63,4.18-3.63s3.95,1,6.97,3Z"/></g></g></svg>