<svg width="24" height="24" viewBox="0 0 24 24" fill="none" xmlns="http://www.w3.org/2000/svg">
<circle cx="12" cy="12" r="12" fill="#3172FF"/>
<path d="M11.9999 5.33301C9.41992 5.33301 7.33325 7.41967 7.33325 9.99967C7.33325 13.4997 11.9999 18.6663 11.9999 18.6663C11.9999 18.6663 16.6666 13.4997 16.6666 9.99967C16.6666 7.41967 14.5799 5.33301 11.9999 5.33301ZM8.66659 9.99967C8.66659 8.15967 10.1599 6.66634 11.9999 6.66634C13.8399 6.66634 15.3333 8.15967 15.3333 9.99967C15.3333 11.9197 13.4133 14.793 11.9999 16.5863C10.6133 14.8063 8.66659 11.8997 8.66659 9.99967Z" fill="white"/>
<path d="M11.9999 11.6663C12.9204 11.6663 13.6666 10.9201 13.6666 9.99967C13.6666 9.0792 12.9204 8.33301 11.9999 8.33301C11.0794 8.33301 10.3333 9.0792 10.3333 9.99967C10.3333 10.9201 11.0794 11.6663 11.9999 11.6663Z" fill="white"/>
</svg>
