<svg width="374" height="181" viewBox="0 0 374 181" fill="none" xmlns="http://www.w3.org/2000/svg">
<path d="M220.146 80.4027C218.86 82.8945 217.009 84.7977 214.573 86.1319C212.137 87.4465 209.214 88.1136 205.842 88.1136C200.133 88.1136 195.553 86.3478 192.143 82.816C188.713 79.2843 187.018 74.5361 187.018 68.591C187.018 62.646 188.732 57.7408 192.182 54.2679C195.631 50.7951 200.366 49.0488 206.388 49.0488C211.007 49.0488 214.826 50.2261 217.847 52.5609C220.867 54.8958 222.543 57.9959 222.913 61.8415H219.016C218.431 58.8592 217.048 56.6028 214.865 55.0331C212.682 53.4831 209.779 52.6983 206.154 52.6983C201.38 52.6983 197.619 54.111 194.871 56.9363C192.123 59.7617 190.74 63.6466 190.74 68.5714C190.74 73.4962 192.104 77.3026 194.851 80.1869C197.599 83.0711 201.282 84.5034 205.881 84.5034C209.779 84.5034 213.053 83.3654 215.742 81.109C218.431 78.8527 219.756 76.145 219.756 72.9861V71.1221H208.161V67.8847H223.478V87.113H220.516L220.107 80.3831L220.146 80.4027Z" fill="#001033"/>
<path d="M231.215 87.134V50.0312H248.89C253.275 50.0312 256.568 50.8749 258.789 52.5427C260.992 54.2105 262.102 56.7023 262.102 60.0182C262.102 62.4708 261.596 64.4525 260.563 65.924C259.549 67.3956 257.932 68.5139 255.71 69.2399C257.581 69.5342 258.926 70.1621 259.725 71.1235C260.524 72.0849 261.069 73.7919 261.362 76.2837C261.479 77.2451 261.596 78.5597 261.713 80.2471C261.946 83.8181 262.434 86.0941 263.155 87.1144H258.867C258.4 85.7017 258.088 83.7003 257.951 81.1497C257.796 78.599 257.679 76.9705 257.601 76.2641C257.367 74.4198 256.704 73.1248 255.613 72.34C254.522 71.5551 252.787 71.1823 250.39 71.1823H234.898V87.1144H231.215V87.134ZM248.013 53.4845H234.898V67.7095H248.461C251.988 67.7095 254.522 67.1405 256.061 66.0221C257.601 64.9037 258.38 63.079 258.38 60.5479C258.38 58.0169 257.601 56.1725 256.061 55.0934C254.522 54.0142 251.832 53.4845 248.013 53.4845Z" fill="#001033"/>
<path d="M269.84 87.134V50.0312H298.174V53.4845H273.523V66.4734H296.284V69.9659H273.523V83.6415H298.174V87.134H269.84Z" fill="#001033"/>
<path d="M304.916 87.134V50.0312H333.251V53.4845H308.599V66.4734H331.36V69.9659H308.599V83.6415H333.251V87.134H304.916Z" fill="#001033"/>
<path d="M339.973 87.134V50.0312H344.65L370.431 83.3276V50.0312H373.998V87.134H369.087L343.519 53.8377V87.134H339.953H339.973Z" fill="#001033"/>
<path d="M221.648 117.723H225.37V117.92C225.37 120.745 226.442 123.021 228.566 124.728C230.691 126.435 233.516 127.279 237.063 127.279C240.61 127.279 243.357 126.592 245.404 125.199C247.469 123.825 248.502 121.961 248.502 119.646C248.502 117.88 247.917 116.526 246.729 115.624C245.54 114.721 243.065 113.917 239.323 113.23L231.47 111.857C228.547 111.347 226.364 110.326 224.922 108.796C223.48 107.266 222.759 105.186 222.759 102.596C222.759 99.3388 224.026 96.7292 226.54 94.7868C229.073 92.8443 232.483 91.8633 236.79 91.8633C241.097 91.8633 244.741 92.8639 247.294 94.8849C249.847 96.9058 251.172 99.6919 251.289 103.283H247.606C247.372 100.673 246.358 98.6913 244.527 97.3178C242.714 95.964 240.161 95.2773 236.888 95.2773C233.614 95.2773 231.178 95.9248 229.307 97.2001C227.436 98.4755 226.52 100.222 226.52 102.4C226.52 104.146 227.163 105.48 228.469 106.402C229.775 107.324 232.191 108.109 235.718 108.717L242.714 109.954C246.066 110.562 248.521 111.621 250.08 113.132C251.639 114.663 252.419 116.782 252.419 119.509C252.419 123.08 251.094 125.886 248.463 127.906C245.832 129.927 242.169 130.928 237.453 130.928C232.737 130.928 228.703 129.79 225.897 127.534C223.09 125.277 221.687 122.197 221.687 118.273V117.723H221.648Z" fill="#001033"/>
<path d="M290.653 104.989C289.932 101.948 288.412 99.5937 286.093 97.9456C283.774 96.2975 280.812 95.4734 277.246 95.4734C272.413 95.4734 268.613 96.8861 265.826 99.7311C263.059 102.556 261.656 106.461 261.656 111.405C261.656 116.35 263 120.097 265.69 122.982C268.379 125.866 271.984 127.298 276.505 127.298C280.227 127.298 283.404 126.278 286.015 124.257C288.626 122.216 290.322 119.489 291.062 116.036H294.979C294.141 120.627 292.056 124.257 288.782 126.925C285.489 129.594 281.435 130.948 276.622 130.948C270.951 130.948 266.43 129.182 263.02 125.63C259.629 122.079 257.934 117.35 257.934 111.425C257.934 105.5 259.648 100.575 263.098 97.1019C266.547 93.6291 271.282 91.8828 277.304 91.8828C282.059 91.8828 285.937 93.0404 288.957 95.3753C291.978 97.7102 293.79 100.908 294.394 105.009H290.653V104.989Z" fill="#001033"/>
<path d="M297.143 129.948L314.135 92.8457H318.364L335.162 129.948H331.44L326.276 118.49H306.107L300.904 129.948H297.123H297.143ZM307.763 114.899H324.659L316.24 95.9262L307.763 114.899Z" fill="#001033"/>
<path d="M339.975 129.948V92.8457H344.652L370.433 126.142V92.8457H373.999V129.948H369.089L343.521 96.6521V129.948H339.955H339.975Z" fill="#001033"/>
<path d="M199.374 130.926C206.209 130.926 211.749 125.348 211.749 118.467C211.749 111.586 206.209 106.008 199.374 106.008C192.54 106.008 187 111.586 187 118.467C187 125.348 192.54 130.926 199.374 130.926Z" fill="#7BC62C"/>
<g clip-path="url(#clip0_2768_5844)">
<path d="M23.3123 76.599C27.1059 48.9627 49.5756 26.7703 77.5573 22.9916C96.5576 20.4297 114.229 26.258 127.36 37.21L132.84 31.798C138.709 26.0018 137.639 16.2026 130.505 11.9755C115.104 2.91279 96.5901 -1.57051 76.9413 0.511021C36.9627 4.73813 4.76594 36.5055 0.518422 75.9905C-2.01063 99.4638 5.15502 121.272 18.546 138.052C19.5188 139.269 21.0102 142.247 19.3566 143.88L37.6761 125.787C26.5871 112.786 20.7184 95.3648 23.2799 76.599H23.3123Z" fill="#7BC62C"/>
<path d="M46.1728 79.3848C48.7343 62.0921 62.8386 48.1618 80.3474 45.6319C88.3237 44.4791 95.9108 45.6319 102.59 48.5461C105.573 49.8591 110.955 53.4137 109.075 55.271L121.266 43.2302C110.307 34.3597 95.846 29.5561 80.2826 31.2213C54.8624 33.9434 34.3057 54.2463 31.5497 79.3527C29.8636 94.724 34.7272 109.007 43.7086 119.831L46.9834 116.596C50.777 112.849 51.8794 107.149 49.5773 102.346C46.3025 95.5246 44.9407 87.6789 46.1728 79.4168V79.3848Z" fill="#7BC62C"/>
<path d="M85.0482 180.419C125.383 176.384 157.937 144.233 162.055 104.395C165.038 75.414 153.203 48.9626 133.165 31.5098L117.083 47.3934C132.808 60.4911 142.082 80.9221 139.358 103.307C135.889 131.679 112.706 154.544 84.0106 157.971C61.3464 160.661 40.66 151.502 27.3987 135.971L20.5573 142.728C15.1749 148.043 15.5964 156.786 21.4651 161.557C38.4876 175.328 60.8924 182.821 85.0806 180.419H85.0482Z" fill="url(#paint0_linear_2768_5844)"/>
<path d="M82.6158 149.645C107.679 146.763 127.912 126.78 130.83 102.026C133.132 82.4914 124.864 64.6864 110.954 53.4141L109.625 54.727C105.15 59.1463 104.502 66.2555 108.36 71.2192C114.683 79.3852 117.958 89.985 116.304 101.353C113.807 118.774 99.5734 132.832 81.9349 135.298C66.4039 137.476 52.2671 130.847 43.7397 119.799L33.3965 130.014C44.7772 143.752 62.8048 151.918 82.6158 149.645Z" fill="url(#paint1_linear_2768_5844)"/>
<path d="M78.3682 100.265C84.582 100.265 89.6193 95.2903 89.6193 89.1532C89.6193 83.0161 84.582 78.041 78.3682 78.041C72.1545 78.041 67.1172 83.0161 67.1172 89.1532C67.1172 95.2903 72.1545 100.265 78.3682 100.265Z" fill="#7BC62C"/>
<path d="M96.6227 101.58H88.3871C85.5986 103.821 82.0968 105.198 78.2384 105.198C69.257 105.198 61.9617 97.993 61.9617 89.1225C61.9617 80.2519 68.5761 73.8472 76.9415 73.1747V67.1543C65.2365 67.8268 55.8984 77.4018 55.8984 89.1225C55.8984 100.843 65.9174 111.155 78.206 111.155C85.8256 111.155 92.5697 107.344 96.5903 101.548L96.6227 101.58Z" fill="#7BC62C"/>
</g>
<defs>
<linearGradient id="paint0_linear_2768_5844" x1="65.5939" y1="84.5728" x2="165.979" y2="188.967" gradientUnits="userSpaceOnUse">
<stop stop-color="#416817"/>
<stop offset="0.02" stop-color="#457018"/>
<stop offset="0.09" stop-color="#568A1E"/>
<stop offset="0.17" stop-color="#63A023"/>
<stop offset="0.26" stop-color="#6EB127"/>
<stop offset="0.38" stop-color="#75BD2A"/>
<stop offset="0.54" stop-color="#79C42B"/>
<stop offset="1" stop-color="#7BC62C"/>
</linearGradient>
<linearGradient id="paint1_linear_2768_5844" x1="62.2861" y1="83.9005" x2="135.853" y2="147.569" gradientUnits="userSpaceOnUse">
<stop stop-color="#416817"/>
<stop offset="0.02" stop-color="#457018"/>
<stop offset="0.09" stop-color="#568A1E"/>
<stop offset="0.17" stop-color="#63A023"/>
<stop offset="0.26" stop-color="#6EB127"/>
<stop offset="0.38" stop-color="#75BD2A"/>
<stop offset="0.54" stop-color="#79C42B"/>
<stop offset="1" stop-color="#7BC62C"/>
</linearGradient>
<clipPath id="clip0_2768_5844">
<rect width="162.476" height="180.869" fill="white"/>
</clipPath>
</defs>
</svg>
