<svg id="Слой_1" data-name="Слой 1" xmlns="http://www.w3.org/2000/svg" viewBox="0 0 176.83 188.48"><defs><style>.cls-1{fill:#4bb379;}.cls-2{fill:#1ba35a;}.cls-3{fill:#118c4f;}</style></defs><title>Logo_Almadocs</title><polygon class="cls-1" points="0 143.68 44.2 188.48 44.2 34.32 0 79.12 0 143.68"/><polygon class="cls-1" points="110.23 143.68 154.42 188.48 154.42 79.12 110.23 34.32 110.23 143.68"/><rect class="cls-2" x="44.2" y="34.32" width="66.03" height="42.9"/><polygon class="cls-2" points="44.2 188.48 44.2 145.59 87.09 145.59 44.2 188.48"/><polygon class="cls-1" points="132.63 0 110.23 21.49 154.42 21.49 132.63 0"/><polygon class="cls-2" points="176.83 0 132.63 0 154.42 21.49 176.83 0"/><polygon class="cls-3" points="44.2 34.32 44.2 77.21 49.75 77.21 44.2 34.32"/><polygon class="cls-3" points="44.2 188.48 44.2 145.59 49.75 145.59 44.2 188.48"/><polygon class="cls-3" points="110.23 34.32 110.23 35.62 110.23 77.21 108.8 77.21 110.23 34.32"/></svg>