<svg width="198" height="198" viewBox="0 0 198 198" fill="none" xmlns="http://www.w3.org/2000/svg">
<circle cx="99" cy="99" r="99" fill="#9F53FF"/>
<path d="M53 160V37H106.786C116.235 37 124.17 38.2612 130.59 40.7837C137.051 43.3062 141.917 46.8696 145.188 51.4741C148.499 56.0786 150.154 61.5039 150.154 67.75C150.154 72.2744 149.145 76.3984 147.126 80.1221C145.147 83.8457 142.361 86.9688 138.767 89.4912C135.173 91.9736 130.974 93.6953 126.169 94.6562V95.8574C131.499 96.0576 136.344 97.3989 140.705 99.8814C145.067 102.324 148.539 105.707 151.124 110.031C153.708 114.315 155 119.36 155 125.166C155 131.893 153.223 137.878 149.67 143.124C146.157 148.369 141.15 152.493 134.648 155.496C128.147 158.499 120.394 160 111.39 160H53ZM86.677 133.334H102.425C108.078 133.334 112.318 132.293 115.145 130.211C117.971 128.089 119.385 124.966 119.385 120.842C119.385 117.959 118.719 115.517 117.386 113.515C116.053 111.513 114.156 109.991 111.692 108.95C109.27 107.909 106.342 107.389 102.91 107.389H86.677V133.334ZM86.677 86.7285H100.487C103.435 86.7285 106.039 86.2681 108.3 85.3472C110.562 84.4263 112.318 83.105 113.57 81.3833C114.862 79.6216 115.508 77.4795 115.508 74.957C115.508 71.1533 114.135 68.2505 111.39 66.2485C108.644 64.2065 105.171 63.1856 100.971 63.1856H86.677V86.7285Z" fill="white"/>
</svg>
