<?xml version="1.0" encoding="UTF-8"?>
<svg id="_Слой_1" data-name="Слой 1" xmlns="http://www.w3.org/2000/svg" xmlns:xlink="http://www.w3.org/1999/xlink" viewBox="0 0 595.28 595.28">
  <defs>
    <style>
      .cls-1 {
        fill: #fff;
      }

      .cls-2 {
        fill: #272f67;
      }

      .cls-3 {
        fill: #393f92;
      }

      .cls-4 {
        clip-path: url(#clippath);
      }

      .cls-5 {
        fill: none;
      }
    </style>
    <clipPath id="clippath">
      <circle class="cls-5" cx="297.64" cy="297.64" r="269.44"/>
    </clipPath>
  </defs>
  <g class="cls-4">
    <circle class="cls-2" cx="297.64" cy="297.64" r="269.44"/>
    <path class="cls-3" d="m879.28-12.03c6.59,2.92,12.35,7.71,19.28,9.72,10.79,3.12,22.2-1.01,32.66-5.09,4.13-1.61,9.14-4.91,7.78-9.13-1.31-4.08-7-4.05-10.83-5.97-6.9-3.47-7.14-13.07-6.4-20.76-4.86,5.2-12.24,7.92-19.31,7.14-7.07-.79-13.67-5.07-17.27-11.2-3.63,1.08-5.61,5.26-5.43,9.04.18,3.79,2,7.27,3.79,10.61-21.73-1.94-45.91.17-64.66-11-7.53-4.49-13.91-10.63-20.58-16.32-6.67-5.69-13.88-11.09-22.26-13.65-8.39-2.56-18.21-1.84-24.95,3.78-6.74,5.61-8.94,16.71-3.33,23.44,2.91,3.49,7.27,5.36,10.92,8.05,3.66,2.69,6.85,7.1,5.66,11.48-1.42,5.21-8.04,7-13.4,6.35-11.6-1.4-21.87-10.51-24.65-21.86-1.43-5.84-1.01-11.97-1.76-17.94s-3.07-12.27-8.23-15.37c-7.11-4.27-15.7-.78-23.04,3.83.02-.1.09-.17.1-.27.47-2.8-1.9-5.45-4.6-6.31-2.7-.87-5.63-.41-8.44.06-4.84.81-9.68,1.61-14.52,2.42-2.85.47-5.86.93-8.55-.09-4.66-1.77-6.64-7.15-8.08-11.93.43,1.21-27.21,2.36-29.72,3.13-2.5,1.97-2.21,6.11-.16,8.54,2.05,2.43,5.26,3.51,8.37,4.21,3.1.7,6.34,1.16,9.08,2.76,3.02,1.77,5.16,4.69,7.43,7.42-6.19-2.21-12.09-5.48-17.79-8.83-6.45-3.79-13.86-9.51-12.5-16.87-1.75-.1-3.51-.21-5.26-.31,12.67-6.81,25.34-13.62,38.01-20.44,1.5-30.03,3-60.06,4.5-90.09,1.43-.11,2.86-.22,4.29-.33-3.92,7.25-4.94,16.02-2.8,23.98,8.93,1.71,13.51,12.13,13.38,21.23-.13,9.09-3.41,17.93-3.46,27.03-.05,9.1,4.75,19.47,13.73,20.94,10.9-28.77,21.79-57.54,32.68-86.31,1.56-4.11,2.97-9.17.13-12.52-3.49-4.1-10.53-2.27-14.92-5.39-4-2.84-4.32-8.56-4.26-13.47.14-10.69.28-21.37.42-32.06.08-5.93-.12-12.56-4.35-16.71-4.25-4.18-11.32-4.19-16.71-1.64-5.49,2.59-9.12,7.31-13.43,11.27-3.74-3.5-3.44-11.47-8.16-13.14-4.02,6.37-6,14.94-10.25,21.77-6.29,10.11-13.47,20.57-13.72,32.47-.26,12.3,6.99,23.6,8.15,35.84,1.64,17.36-9.09,34.18-7.19,51.51.86,7.89,4.17,16.55-.1,23.25-3.13,4.9-9.23,6.78-14.09,9.97-4.19,2.75-7.64,8.26-6.13,12.59-4.4-.26-8.8-.52-13.19-.77-.99,11.73-5.34,26.41-11.34,36.53,2.87.75,5.75,1.49,8.62,2.24-.01.01-.08,0-.09.02-41.11,101.51-72.51,206.94-93.65,314.4-1.72,8.73-3.36,17.81-1.19,26.44.58,2.3,1.53,4.54,2.75,6.62.06.6.22,1.19.37,1.78-9.18-2.58-21.5-3.62-22.99,7.63-.16,1.23-.04,2.41.25,3.54-8.38,1.82-16.04,12.9-19.74,18.44-18.57,27.79-34.91,55.98-55.47,82.67-10.69,13.88-21.39,27.77-32.08,41.65.15-.88.28-1.77.35-2.66.56-6.3-.8-13.08-1.99-19.86-1.2-6.7-2.31-13.4-1.52-19.86.16-1.2.4-2.39.72-3.59-2.55-5.82-6.94-10.85-12.68-14.12.4-.8.96-1.6,1.28-2.47,6.46-4.31,10.29-11.09,11.49-18.51.96.32,1.99.32,3.03-.32,10.53-5.9,17.71-16.67,18.91-28.72.64-6.3-1.04-12.84-4.55-17.87.88-.96,1.28-2.31,1.04-3.75-.96-6.38-3.51-12.28-7.1-17.39.8.48,1.83.72,2.79.32,7.34-2.71,12.44-9.41,13.88-16.99,0-3.27-.08-6.46-.24-9.73v-.08c0-.24-.08-.48-.16-.72-2.71-9.33-10.45-15.87-19.38-18.91.72-.56,1.2-1.44,1.28-2.63,1.04-15-11.65-24.89-23.61-31.59-.08-.32-.08-.64-.24-.96-4.07-8.3-10.13-15.48-17.47-20.98,0,0-.08-.16-.16-.08-4.79-1.91-9.41-3.91-13.72-6.38-2.07-1.12-4.15-2.39-6.06-3.75-.64-.48-1.28-.88-1.91-1.44-2.71-1.99-5.19-4.31-7.42-6.94,1.12,4.39,2.23,8.7,3.35,13-.88.96-1.83,1.6-2.95,2.07-2.47.88-5.58.4-8.7-.56-1.94-.6-3.89-1.4-5.79-2.2-3.78-9.55-10.11-18.07-18.51-23.95-11.32-7.92-26.36-10.65-39.47-6.29-10.2,3.39-18.6,10.67-25.14,19.03-3.71,4.74-10.65,12.59-9.08,19.07-1.98.35-3.95.86-5.8,1.52-4.95,1.75-9.57,4.55-13.88,7.82-1.04.88-2.07,1.68-3.03,2.55-3.91,3.43-7.5,7.26-10.77,11.33-1.68,1.91-3.19,3.91-4.71,5.82-5.74,7.42-11.17,15.08-16.35,22.97.16,1.52.56,3.11,1.2,4.71-.8.72-1.6,1.36-2.31,2.07-8.77,8.62-18.35,21.94-10.29,34.22.16.24.32.24.4.4-1.52,2.95-2.87,5.98-3.75,9.33-4.15,16.19,3.27,33.34,17.71,41.64,1.2.72,2.31.64,3.27.24,1.75,4.39,4.07,8.62,7.1,12.44.08.16.32.16.4.32-3.43,5.11-6.3,10.61-7.66,16.67-2.39,10.29-.64,21.78,7.02,29.36,1.2,1.2,2.55,1.36,3.75.96,1.04,4.55,2.87,8.85,6.06,12.84,6.7,8.3,17.63,12.36,27.68,10.21,0,.08,0,.16.08.16,6.14,11.09,1.83,24.73,3.43,36.61,1.44,10.37,7.66,20.1,18.19,22.26.4,3.27.96,6.46,1.91,9.65,3.03,9.73,10.21,18.59,19.62,21.62,1.28-2.15,2.31-4.55,3.03-7.02.96-3.11,1.52-6.38,1.6-9.57.08-1.2,0-2.39-.08-3.51-.24-2.95-.72-5.9-1.52-8.77-.72-2.71-1.6-5.34-2.63-7.98-.16-.56-.32-1.04-.56-1.44-2.47-6.06-5.58-11.97-8.54-17.79-7.34-14.52-13.64-29.52-18.99-44.91-1.44-3.91-2.71-7.9-3.91-11.89-.32-1.04-.64-2.07-.88-3.03-3.43-11.01-6.22-22.18-8.54-33.42-.64-3.19-1.2-6.7.48-9.49.16-.24.32-.48.48-.64,1.91-2.47,5.26-3.51,8.38-4.31,18.91-4.87,38.38-9.67,57.86-12.4-.22,2.03-.26,4.13.02,6.32,2.27,17.8,16.95,15.67,28.07,25.31,4.54,3.94,6.61,11.75,2.17,15.81-4.08,3.73-10.44,2.01-15.96,1.68-5.51-.34-12.71,3.61-10.78,8.79,7.57-.88,15.38,4.38,17.41,11.72-14.55,2.09-28.64,7.36-40.99,15.34-1.86,1.2-3.78,2.58-4.56,4.65-1.06,2.78.28,5.89,1.95,8.36,11.38,16.85,35.07,18.5,55.4,19.01,20.33.51,44.31,3.77,53.78,21.77,1.02-.87,1.8-1.89,2.49-2.98,2.65,1.72,5.28,3.46,7.9,5.22-1.25,6.7,9.42,11.74,13.91,15.57,29.88,25.42,52.91,58.79,66.1,95.74-56.25,8.79-116.33-.76-162.61-33.64-10.12-7.19-21.49-15.89-33.56-13.04-25.54,6.03-14.84,30.79-6.06,46.79-26.04,24.48-52.08,48.96-78.12,73.44-6.09-11.66-11.32-23.84-16.94-36.53-2.04-4.61-4.4-9.57-8.9-11.85-5.77-2.93-13.12-.14-17.41,4.7-4.29,4.85-6.22,11.28-8.04,17.49-8.47,28.92-16.93,57.84-25.4,86.76-10.06,34.35-19.89,72.42-4.6,104.78,21.72-8.18,46.05,1.58,69.12,1.69-10.39,2.82-20.81,6.34-28.49,13.74-8.77,8.46-12.26,23.73-4.11,32.8,9.12,10.15,25.49,6.84,38.48,2.67,38.29-12.28,76.93-24.98,117.02-28.09,40.09-3.11,82.48,4.32,114.36,28.84,30.94-18.27,75.89-21.47,105.61-1.27-2.94-4.88-5.26-10.02-7.31-15.27,2.92,1.8,6.19,3.33,9.98,4.51,22.06,6.83,48.56,4.25,71.24,3.72,32.08-.75,64.12-3.48,95.86-8.19-11.76-13.91-19-31.18-26.56-48.05.84-.55,1.73-1,2.56-1.56,5.7,11.91,11.4,23.82,17.1,35.73-.62-6.09,1.82-13.06,5.38-18.36,5.54-8.26,13.33-15.76,14.62-25.62,1.57-12.05-7.05-22.74-14.63-32.24-50.49-63.32-75.29-142.76-99.05-220.17-22.11-72.05-44.95-143.92-66.35-216.18-1.39-4.69-2.31-13.31-4.38-20.79,4.28,2.36,8.56,4.28,11.36,5.78,24.64,13.22,51.7,21.95,79.44,25.5,5.21.67,11.61.62,14.37-3.86,2-3.25,1.02-7.67-1.36-10.65-2.37-2.98-5.86-4.84-9.29-6.51-3.48-1.7-7.03-3.25-10.59-4.79-7.71-10.46-22.51-34.86-25.83-38.6-6.73-7.57-15.54-17.82-24.99-25.45,2.47-8.52,5.18-16.97,8.32-25.26,4.2-11.08,9.36-22.42,18.72-29.69,14.45-11.22,34.67-9.86,52.87-7.97,1.61-11.17-8.41-20.46-18.14-26.18-9.73-5.72-21.05-11.08-25.17-21.59-3.79-9.65-.16-20.46,3.45-30.18,13.65-36.7,27.3-73.4,40.95-110.1,3.21-8.62,6.88-17.84,14.62-22.8,7.91-5.07,52.04-5.54,43.87-23.51-.58-1.29-4.14-2.93-9.26-4.7,4.44-.02,8.88-.22,13.31-.55,16.72-1.24,34.21-3.04,50.93-4.27,6.81,5.37,10.21,13.87,15.45,20.79,6.06,8.01,15.23,14.08,25.25,14.67,10.03.6,20.6-5.15,24.02-14.6,3.42-9.44-2.16-21.62-11.97-23.78-4.75-1.05-10.76-.34-13.42-4.41-3.16-4.83,2.05-11.06,7.47-13.04,10.08-3.7,21.63-.78,30.64,5.04,9.02,5.82,14.69,11.05,20.64,19.98,6.52,9.79,19.21,13.31,30.92,14.42,11.72,1.1,23.94.63,34.7,5.4ZM354.87,466.98c.82,1.01,1.8,1.91,2.94,2.38-1.36,1.76-2.71,3.52-4.07,5.29-.21-3.08-.99-6.19-2.2-8.97-1.72-3.94-4.07-7.55-6.43-11.15,3.26,4.15,6.53,8.3,9.77,12.46Zm-98.04-190.73c-9.89.64-19.78,2.15-29.44,4.47-3.67.88-25.61,4.87-26.56,8.46,3.11-11.01,8.46-21.38,15.64-30.31,3.27-4.31,7.1-8.22,11.25-11.81,5.03-4.39,11.01-8.22,17.63-8.77,10.21-.96,19.46,6.06,25.85,14.12.8.96,2.39,2.95,4.23,5.34,4.71,6.06,10.85,14.92,8.93,17.31-3.03,3.67-22.58.8-27.52,1.2ZM681.33-61.22c.76-.15,1.54-.23,2.31-.33-4.13,1.9-8.35,3.65-12.65,4.96,3.29-1.99,6.61-3.88,10.34-4.63Z"/>
    <path class="cls-1" d="m286.84,399.91c-7.58-1.39-15.34-1.16-22.79.84-2.08.56-3.59,2.89-2.94,5.02.65,2.12,2.8,3.53,5.02,2.94,1.62-.44,3.26-.79,4.92-1.06.31-.05.63-.1.94-.14.1,0,.79-.08.89-.09.83-.08,1.67-.14,2.51-.17,1.68-.07,3.35-.05,5.03.07.71.05,1.43.12,2.14.2.16.02.57.08.67.09.51.08,1.02.17,1.53.26,2.11.39,4.53-.65,5.02-2.94.44-2.04-.67-4.61-2.94-5.02Z"/>
    <path class="cls-1" d="m298.78,394.16c1.18.28,3.03-.02,2.76-1.2-.09-.42-.47-.71-.82-.96-3.73-2.66-7.46-5.33-11.18-7.99-1.75-1.25-3.72-2.57-5.86-2.35-2.06.21-3.68,1.77-5.51,2.73-2.28,1.2-5.03,1.46-7.5.71-2.02-.61-3.88-1.88-5.99-1.98-3.3-.17-6.02,2.5-7.99,5.15-2.18,2.92-4.11,5.54-7.52,7.05,7.09-.92,13.88-3.14,21.13-3.59,9.54-.59,19.17.21,28.48,2.42Z"/>
    <path class="cls-1" d="m255.75,359.09c-.26-.51-.63-.91-1.11-1.21-.4-.37-.88-.62-1.43-.74-.35-.04-.7-.09-1.04-.13-.72,0-1.4.18-2.03.54-.29.22-.58.45-.88.67-.52.53-.88,1.15-1.07,1.86l-.41,2.43c-.16.52-.18,1.04-.07,1.57.02.54.18,1.04.47,1.51.26.51.63.91,1.11,1.21.4.37.88.61,1.43.74.35.04.7.09,1.04.13.72,0,1.4-.18,2.03-.54.29-.22.58-.45.88-.67.52-.53.88-1.15,1.07-1.86.14-.81.27-1.62.41-2.43.16-.52.18-1.04.07-1.57-.02-.54-.18-1.04-.47-1.51Z"/>
    <path class="cls-1" d="m326.99,437.15c-12.04,17.69-32.18,29.54-53.5,31.43-5.24.47-5.28,8.69,0,8.22,24.46-2.17,46.84-15.29,60.65-35.6,2.97-4.37-4.19-8.42-7.15-4.06Z"/>
    <path class="cls-1" d="m317.37,318.26c-10.52.89-21.15-.76-30.78-5.15-2.02-.92-4.44-.51-5.61,1.55-1.02,1.8-.49,4.68,1.55,5.61,10.9,4.97,22.88,7.24,34.84,6.22,2.21-.19,4.11-1.76,4.11-4.11,0-2.08-1.89-4.3-4.11-4.11Z"/>
    <path class="cls-1" d="m302.07,294.37c-30.28-11.95-64.98-9.82-93.74,5.31-4.7,2.47-.62,9.61,4.06,7.15,27.02-14.21,59.25-15.7,87.6-4.5,4.91,1.94,6.96-6.03,2.09-7.96Z"/>
    <path class="cls-1" d="m326.22,306.36c-.22-.29-.45-.58-.67-.88-.53-.52-1.15-.88-1.86-1.07-1.95-.78-3.9-1.56-5.85-2.34-.52-.16-1.04-.18-1.57-.07-.54.02-1.04.18-1.51.47-.51.26-.91.63-1.21,1.11-.37.4-.62.88-.74,1.43-.22,1.02-.17,2.16.4,3.07.22.29.45.58.67.88.53.52,1.15.88,1.86,1.07l5.85,2.34c.52.16,1.04.18,1.56.07.54-.02,1.04-.18,1.51-.47.51-.27.91-.63,1.21-1.11.37-.4.61-.88.74-1.43.22-1.02.17-2.16-.4-3.07Z"/>
    <path class="cls-1" d="m270.92,305.73c-22.01-3.37-44.81,1.72-62.98,14.7-4.27,3.05-.24,10.23,4.06,7.15,16.35-11.69,36.89-16.95,56.83-13.9,5.18.79,7.33-7.16,2.09-7.96Z"/>
    <path class="cls-1" d="m239.72,227.94c-17.92-5.09-38.01-1.52-52.9,9.75-1.77,1.34-2.75,3.5-1.55,5.61.99,1.73,3.83,2.9,5.61,1.55,13.32-10.08,30.65-13.52,46.75-8.94,5.09,1.45,7.19-6.51,2.09-7.96Z"/>
    <path class="cls-1" d="m159.58,297.95c-.12-.55-.37-1.02-.74-1.43-.3-.47-.7-.84-1.21-1.11-.33-.13-.66-.27-.99-.4-.7-.18-1.39-.18-2.09,0-.33.13-.66.27-.99.4-.65.38-1.17.89-1.55,1.55-.16.32-.32.63-.47.95-.29.47-.44.97-.47,1.51-.11.52-.09,1.04.07,1.57.12.55.37,1.02.74,1.43.3.47.7.84,1.21,1.11.33.13.66.27.99.4.7.18,1.39.18,2.09,0,.33-.13.66-.27.99-.4.65-.38,1.17-.89,1.55-1.55l.47-.95c.29-.47.44-.97.47-1.51.11-.52.09-1.04-.07-1.57Z"/>
    <path class="cls-1" d="m195.17,218.03c-1.81-1.66-3.99-1.42-5.82,0-6.85,5.33-13.7,10.67-20.56,16-1.7,1.33-1.5,4.44,0,5.82,1.81,1.66,3.99,1.42,5.82,0,6.85-5.33,13.7-10.67,20.56-16,1.7-1.33,1.5-4.44,0-5.82Z"/>
    <path class="cls-1" d="m335.73,257.12c-7.44-6.71-14.88-13.41-22.32-20.12-6.68-6.02-13.17-12.56-20.62-17.65-6.16-4.2-13.4-6.89-20.92-5.92-6.9.89-13.57,4.69-16.33,11.31-2.01,4.82,5.11,8.95,7.15,4.06,2.21-5.3,7.57-7.6,13.12-7.38,6.75.27,12.75,4.6,17.72,8.8,12.43,10.52,24.29,21.8,36.39,32.7,3.92,3.53,9.76-2.26,5.82-5.82Z"/>
    <path class="cls-1" d="m475.48,578.12c-20.81-36.9-45.92-74.58-86.01-92.39-4.79-2.13-8.91,5-4.06,7.15,38.83,17.25,62.77,53.58,82.92,89.3,2.6,4.62,9.75.55,7.15-4.06Z"/>
    <path class="cls-1" d="m425.38,564.72c-17.37-20.78-39.02-44.39-68.78-42.02-5.25.42-5.29,8.64,0,8.22,27.49-2.18,47.02,20.54,62.97,39.61,3.39,4.06,9.19-1.78,5.82-5.82Z"/>
    <path class="cls-1" d="m264.63,567.73s.03.02.04.04c-.03-.04-.12-.16-.28-.35.01.02.03.03.04.05.06.08.14.18.2.25Z"/>
    <path class="cls-1" d="m242.85,225.41c.74.99,1.73,1.48,2.71,1.64l-2.71-1.64Zm-29.94-17.77c-.74-.25-1.48-.41-2.3-.49-2.63.9-5.1,2.14-7.4,3.7-1.81,1.32-2.71,3.62-1.56,5.68,1.07,1.81,3.78,2.8,5.68,1.48,4.52-3.13,9.87-4.77,15.38-4.52l-9.79-5.84Zm474.5,637.6c3.62-8.64,6.74-20.23.74-28.54-.33-.33-.58-.66-.9-.9-.33-.49-.58-.99-1.15-1.4-27.8-18.92-45.81-48.2-59.96-77.97-16.2-34.05-28.95-69.83-38.58-106.27-5.59-21.06-10.03-42.28-13.41-63.74-.82-5.26-8.8-3.13-7.98,2.06,6.25,39.15,15.96,77.64,29.28,114.98,12.09,33.89,26.16,68.6,47.05,98.21,10.53,15.05,23.19,28.38,38.25,38.99-13.41-1.07-26.98,3.21-37.26,12.09-11.51,9.95-17.85,24.76-32,31.67-16.04,7.9-32.41,1.64-49.1.16-9.87-.9-20.73.58-28.79,6.58.16-1.64.41-3.29.9-4.85,1.15-4.03,3.45-7.4,5.51-10.94,1.89-3.21,3.54-6.91,4.19-10.69.66-.66,1.07-1.56,1.07-2.8-1.15-34.22-1.97-68.43-2.55-102.65-.08-5.35-8.31-5.35-8.22,0,.49,29.77,1.32,59.63,2.22,89.49-4.61-2.96-10.36-4.77-14.97-6-5.43-1.4-10.86-1.89-16.37-1.73,18.18-46.55,26.24-96.73,23.44-146.57,2.8,1.81,5.51,3.7,8.47,5.35,10.53,31.42,18.75,63.58,24.67,96.15.99,5.26,8.88,3.13,7.98-2.06-6-33.23-14.56-65.88-25.25-97.79,0-.08-.08-.25-.16-.33-3.13-9.29-6.42-18.67-9.95-27.88-1.89-4.85-9.87-2.8-7.98,2.14,2.22,5.76,4.19,11.6,6.25,17.35-25.83-17.44-44.09-43.92-60.7-69.99-18.59-29.12-36.68-59.38-63.74-81.59-14.06-11.51-30.1-20.15-47.87-24.02,1.23-2.06,2.63-4.03,3.95-6.09,3.04,1.4,6.09,2.22,9.46,2.47.99.08,2.14-.49,2.88-1.23s1.23-1.89,1.23-2.88c-.08-1.07-.41-2.22-1.23-2.96s-1.81-1.07-2.88-1.15c-.16,0-.33-.08-.49-.08-1.48-.16-2.96-.58-4.36-1.15,15.87-23.52,34.05-45.4,54.61-65.06,3.21,9.87,7.4,19.58,10.94,29.2,4.52,12.17,9.05,24.26,13.57,36.44,1.81,4.93,9.79,2.88,7.98-2.06-7.4-19.82-14.72-39.64-22.13-59.55-1.48-4.03-4.03-8.72-4.36-13.08-.41-4.77,3.87-6.25,6.66-9.38,4.11-4.69,5.76-10.69,6.33-16.78,1.15-11.84-3.45-29.94,9.38-36.6,5.84-3.13,12.75-3.87,18.42-7.4,5.43-3.45,8.06-8.72,8.88-14.72.25.16.58.33.82.49.33.49.74,1.07,1.48,1.4.16.16.41.25.66.41,24.51,76,74.19,145.09,79.21,226.76.33,5.26,8.55,5.26,8.22,0-4.93-79.86-51.41-147.31-76.9-221.17,24.35,12.83,49.27,24.26,74.93,34.05,10.61,4.03,27.72,12.67,36.6.74,7.81-10.53-1.64-20.89-10.28-26.98,1.48-4.19,2.96-8.31,4.44-12.5,8.72,13.57,17.93,29.77,12.42,45.98-2.96,8.8-7.4,16.94-10.03,25.91-2.39,8.39-4.19,16.94-5.84,25.5-7.57,38.74-14.97,77.64-22.45,116.38-.99,5.18,6.99,7.32,7.98,2.14,7.81-40.63,15.3-81.43,23.52-121.98,1.89-9.13,3.95-18.18,6.99-26.98,3.04-8.64,8.14-16.61,9.38-25.66,2.47-17.77-7.57-34.3-16.86-48.53-.58-.82-1.23-1.23-1.97-1.56,5.59-15.63,11.27-31.34,16.86-46.96,4.69-13.08,9.21-26.32,14.31-39.23,5.1-12.67,11.6-24.67,17.19-37.09,20.64-45.73,21.06-96.48,22.78-145.66,1.07-28.38,2.63-56.83,8.88-84.63.25-1.23,0-2.3-.58-3.13-1.73-2.63-6.5-2.88-7.4,1.07-.16.82-.41,1.64-.49,2.47-10.53,48.36-7.32,98.12-11.68,147.14-2.3,25.09-6.74,50.34-16.45,73.7-5.1,12.17-11.6,23.69-16.78,35.86-5.35,12.42-9.79,25.09-14.31,37.75-10.53,29.53-21.14,59.06-31.67,88.5-25-12.91-50.09-25.83-75.09-38.74-2.3-1.23-4.93-2.55-7.65-3.62.16-.41.33-.74.41-1.23,1.32-17.93,4.93-35.61,10.86-52.64,5.51-15.71,13.98-30.35,18.42-46.39,4.52-16.53.9-33.64,4.77-50.17,3.78-16.2,11.76-30.84,13.74-47.46.66-5.26-7.57-5.18-8.22,0-2.06,17.03-11.1,32.08-14.23,48.86-3.13,16.78.16,33.64-5.1,50.17-5.02,15.87-13.32,30.6-18.51,46.47-1.07,3.21-1.97,6.42-2.8,9.62-1.48-.9-3.37-1.07-5.02.33-12.83,11.02-20.81,26.73-22.29,43.59-.74,8.22,2.63,19.74-5.76,24.92-5.84,3.54-13.08,4.11-19,7.65-12.91,7.65-11.93,22.87-12.09,36.03-.08,6.74-.33,14.48-5.59,19.49-2.39,2.3-5.18,3.95-6.66,7.16-1.23,2.55-1.32,5.26-.99,7.9-.9,0-1.89.33-2.71,1.15-17.77,16.7-33.8,35.04-48.03,54.78-2.8,3.7-5.43,7.48-8.06,11.35-.66-1.32-1.32-2.55-2.06-3.87.82-.08,1.64-.41,2.14-1.07,5.68-7.24,6.83-16.53,4.52-25.25.58-.41,1.07-.99,1.4-1.64.16-.25.33-.49.41-.74,2.8-7.81,2.14-16.29-1.23-23.44-2.63-6-7.16-11.19-13.08-14.56.41-.82.99-1.64,1.32-2.55,6.66-4.44,10.61-11.43,11.84-19.08.99.33,2.06.33,3.13-.33,10.86-6.09,18.26-17.19,19.49-29.61.66-6.5-1.07-13.24-4.69-18.42.9-.99,1.32-2.39,1.07-3.87-.99-6.58-3.62-12.67-7.32-17.93.82.49,1.89.74,2.88.33,7.57-2.8,12.83-9.71,14.31-17.52.66-3.29.66-6.66-.25-10.03v-.08c0-.25-.08-.49-.16-.74-2.8-9.62-10.77-16.37-19.99-19.49.74-.58,1.23-1.48,1.32-2.71,1.07-15.46-12.01-25.66-24.35-32.57-.08-.33-.08-.66-.25-.99-4.19-8.55-10.45-15.96-18.01-21.63,0,0-.08-.16-.16-.08-2.8-2.22-5.84-4.11-8.97-5.76,11.76-3.13,23.61-6.17,35.37-9.29,5.1-1.32,3.04-9.29-2.14-7.98-14.23,3.78-28.38,7.48-42.61,11.27-.9.25-1.56.74-2.06,1.32l-.08.08c-.58-.08-1.07-.25-1.64-.41v-.08c-.08-.33-.16-.74-.25-1.07-.9-4.36-2.39-8.55-4.03-12.67,7.16-5.68,12.42-9.62,17.52-13.49,5.26-3.95,10.36-7.9,17.6-13.49,1.81-1.4,1.48-4.36,0-5.84-1.73-1.73-4.03-1.32-5.84,0-13.65,10.69-19.25,14.64-32.98,25.33-2.22-3.95-4.69-7.81-7.57-11.27,7.9-15.79,15.71-31.58,23.61-47.38,2.39-4.77-4.77-8.8-7.16-4.11-7.48,15.05-14.97,30.1-22.45,45.07-5.26-5.02-11.19-9.29-17.77-12.5.08-.25.16-.33.16-.58,3.21-17.19,6.33-34.46,9.54-51.65.9-5.18-6.99-7.32-7.98-2.06-3.13,17.03-6.25,34.05-9.38,51.08-2.39-.82-4.77-1.73-7.24-2.22-2.63-.58-5.26-1.07-7.9-1.32-1.81-20.32-3.62-40.71-5.43-61.03-.49-5.26-8.72-5.26-8.22,0,1.81,20.23,3.54,40.47,5.35,60.7-5.02.08-9.95.66-14.89,1.73-9.87-22.45-19.74-44.99-29.61-67.44-2.14-4.85-9.21-.74-7.16,4.03,9.62,21.88,19.25,43.84,28.87,65.72-4.77,1.64-9.38,3.7-13.65,6.25-16.53-14.31-33.06-28.71-49.51-43.02-4.03-3.45-9.87,2.3-5.84,5.76,16.04,13.98,32.16,28.05,48.28,42.03-5.26,4.03-10.12,8.88-14.06,14.48-19.74-6.99-39.4-13.98-59.14-20.97-4.93-1.81-6.99,6.17-2.06,7.9,18.84,6.74,37.75,13.41,56.59,20.15-2.8,5.02-5.02,10.36-6.5,15.96l-58.15-3.87c-5.26-.33-5.26,7.9,0,8.22,18.84,1.23,37.59,2.55,56.42,3.78-.82,5.1-1.07,10.28-.74,15.55-.33-.08-.66-.16-.99-.16s-.66.08-.99.16c-15.22,4.28-30.51,8.47-45.73,12.67-5.1,1.48-3.04,9.38,2.14,7.98,12.09-3.37,24.18-6.66,36.27-10.03-1.89,1.97-4.03,3.95-5.84,6-7.9,8.64-18.67,19.58-17.03,31.83.16,1.56.58,3.21,1.23,4.85-.82.74-1.64,1.4-2.39,2.14-9.05,8.88-18.92,22.62-10.61,35.29.16.25.33.25.41.41-1.56,3.04-2.96,6.17-3.87,9.62-4.28,16.7,3.37,34.38,18.26,42.93,1.23.74,2.39.66,3.37.25,1.81,4.52,4.19,8.88,7.32,12.83.08.16.33.16.41.33-3.54,5.26-6.5,10.94-7.9,17.19-2.47,10.61-.66,22.45,7.24,30.27,1.23,1.23,2.63,1.4,3.87.99,1.07,4.69,2.96,9.13,6.25,13.24,6.91,8.55,18.18,12.75,28.54,10.53,0,.08,0,.16.08.16,6.33,11.43,1.89,25.5,3.54,37.75,1.48,10.69,7.9,20.73,18.75,22.95.41,3.37.99,6.66,1.97,9.95,3.13,10.03,10.53,19.16,20.23,22.29,3.13.99,6.42,1.4,9.95.99-1.48,9.13-5.76,17.52-14.31,21.8-.58,0-1.23.16-1.89.58-35.86,20.23-68.1,46.55-95.33,77.4h-.08c-11.35-1.97-22.13,3.13-29.36,11.84-8.64,10.36-10.86,24.1-12.67,37.09-3.54,25.66-6.99,51.24-10.53,76.9h-.16c-4.19.99-8.14,2.8-11.6,5.35-.74.49-1.48.99-2.14,1.56-.16.08-.33.25-.49.49l-.08.08c-.41.66-.66,1.56-.66,2.3,0,.99.41,2.22,1.23,2.88.74.74,1.81,1.32,2.88,1.23,1.15-.08,1.89-.49,2.8-1.23h.16c1.81-1.4,3.87-2.55,6-3.45.25-.08.58-.16.9-.25-.41,2.55-.74,5.18-1.07,7.73-.08.41,0,.82.08,1.23-1.81.25-3.62.41-5.51.49-5.26.33-5.26,8.55,0,8.22,17.44-.9,33.97-7.81,46.88-19.49,3.37,9.62,9.05,18.18,18.09,23.93.16.16.41.25.66.33-.08.25-.25.49-.33.82-1.32,3.13,1.23,5.92,3.7,6.17,4.03,17.68,5.59,35.7,4.52,53.79-.74,0-1.56.16-2.22.49-15.13,8.31-29.2,18.51-41.7,30.51-.49.49-.82.99-.99,1.48-1.56,1.15-2.55,3.62-1.32,5.35,5.76,8.22,11.93,16.12,18.59,23.69,1.4,1.64,4.36,1.56,5.84,0,1.56-1.73,1.48-4.03,0-5.84-3.21-3.54-6.25-7.24-9.21-10.94-.66-.9-1.4-1.81-2.06-2.71-.08-.08-.08-.16-.16-.16l-.49-.74c-.33-.41-.74-.9-1.07-1.32-.82-1.23-1.73-2.47-2.55-3.62,1.23-1.23,2.55-2.3,3.87-3.45,7.32,9.05,14.97,17.77,23.03,26.24,1.56,1.56,4.28,1.48,5.84,0,1.56-1.64,1.48-4.28,0-5.84-2.3-2.39-4.44-4.93-6.66-7.4,5.1-3.45,10.12-6.99,15.05-10.77l.08-.08c1.32,1.56,2.71,3.13,4.03,4.69-1.15,1.07-2.39,2.14-3.62,3.04-1.89,1.48-3.87,2.8-5.84,3.95-.9.49-1.73,1.48-1.97,2.55-.25.9-.16,2.22.41,3.04,1.15,1.89,3.62,2.71,5.59,1.56,3.87-2.22,7.48-4.93,10.86-7.98,1.97,2.22,3.95,4.44,6.09,6.5,3.78,3.78,9.62-2.06,5.84-5.76-10.86-10.86-20.64-22.62-29.36-35.2.99-.58,1.97-1.32,3.04-1.89,5.84,7.16,11.84,14.31,17.93,21.22,5.76,6.66,11.84,13.24,19.99,16.86,4.77,2.14,8.88-4.93,4.03-7.16-7.98-3.54-13.57-10.2-19.25-16.61-4.93-5.68-9.71-11.51-14.56-17.35.58-.58.99-1.32.99-2.3,1.81-22.45-.33-45.07-6.17-66.87,19-42.69,48.61-78.96,81.76-111.61,9.54,48.28,7.57,98.21-5.68,145.58-1.48,5.1,6.5,7.24,7.98,2.14,14.06-50.34,15.71-103.47,4.85-154.55,1.48-1.48,3.13-2.88,4.61-4.28,6.74,3.7,13.41,7.32,20.15,11.02-3.78,2.8-7.57,5.59-11.1,8.72-3.95,3.45,1.81,9.29,5.84,5.84,12.67-11.1,26.9-20.32,42.11-27.47,1.97-.99,2.55-3.78,1.56-5.59-1.23-2.06-3.62-2.55-5.68-1.56-2.55,1.15-5.02,2.55-7.48,3.87-.49-1.23-1.4-2.22-2.71-2.63-8.06-2.63-15.87-6-23.44-9.71,1.89-1.73,3.78-3.54,5.68-5.18,4.03-3.45-1.81-9.29-5.84-5.84-47.38,41.37-93.02,87.76-119.1,145.75-15.22-9.79-18.09-29.03-17.85-45.81,30.6-46.8,69.67-87.76,115.07-120.33.74-.49,1.15-1.15,1.4-1.81,1.4,1.56,2.8,3.04,4.36,4.44,3.78,3.62,9.62-2.14,5.76-5.76-10.03-9.46-16.7-21.8-19.49-35.29,6.91-5.26,14.06-10.28,21.14-15.3,2.88,5.84,7.07,11.1,12.09,15.22.9.74,1.81,1.23,2.96,1.23.99,0,2.22-.49,2.88-1.23,1.4-1.48,1.81-4.36,0-5.84-2.47-1.97-4.69-4.19-6.66-6.74h-.08c-.08-.16-.16-.25-.16-.33-.25-.25-.41-.58-.66-.82-.41-.66-.9-1.32-1.32-2.06-.82-1.32-1.64-2.8-2.39-4.28,31.5-22.13,64.24-42.36,98.04-60.62,33.89,7.32,59.38,32.65,79.21,59.71,20.32,27.64,35.94,58.48,58.15,84.8,7.48,8.97,15.96,17.11,25.17,24.35-.16.41-.25.99-.16,1.56,3.54,51.82-4.77,103.72-24.1,151.91-4.44,1.32-2.39,8.47,2.55,7.73,7.07-1.15,14.31-.74,21.22,1.07,3.37.9,6.58,2.14,9.71,3.7,2.8,1.4,5.92,2.88,6.33,6.33.9,6.42-4.77,12.17-7.32,17.52-3.45,7.07-4.36,14.8-3.04,22.45.49,2.96,3.13,3.54,5.26,2.63,1.07.16,2.14-.16,3.13-1.4,8.72-11.27,24.02-10.2,36.68-8.06,14.8,2.55,28.95,4.77,43.18-1.64,13.32-6,20.48-17.85,29.86-28.38,1.4-1.48,2.71-2.8,4.19-4.11,7.4,17.93,14.89,35.86,22.29,53.87.82,2.06,3.78,2.47,5.59,1.48,2.14-1.15,2.39-3.54,1.56-5.59-2.88-6.91-5.76-13.74-8.55-20.64.33-.16.66-.33.9-.58,7.65-6,13.82-14.06,17.52-23.11Zm-185.06-533.47c8.72,4.52,17.44,9.05,26.16,13.57,17.19,8.8,34.38,17.68,51.57,26.57,1.97,1.07,3.78.33,4.93-.99,1.81.16,3.78-.66,4.52-2.8.58-1.64,1.15-3.21,1.73-4.85,3.37,2.3,6.58,5.18,7.4,9.21,1.48,8.14-7.73,8.31-13.08,6.83-11.68-3.21-23.11-8.39-34.3-13.08-21.55-9.05-42.61-19.25-63.09-30.51-.66-1.07-1.64-1.89-3.21-2.06-2.39-.25-1.56-3.54-.74-4.69,1.07-1.32,3.21-1.81,4.85-1.89,4.69-.33,9.21,2.63,13.24,4.69Zm-19.41-22.87c2.88-8.06,7.73-15.05,13.74-21.06-2.3,10.36-3.95,20.89-4.77,31.42-4.03-.58-8.06-.16-11.51,2.39.33-4.19.99-8.39,2.55-12.75ZM120.3,880.69c5.18-4.28,10.61-8.06,16.2-11.76.74,1.07,1.56,1.97,2.3,2.96-.9-.08-1.73-.08-2.55.41-5.02,3.13-9.71,6.66-14.06,10.61-.58-.74-1.23-1.48-1.89-2.22Zm26.16,1.07c-5.1,3.87-10.36,7.57-15.63,11.1-1.07-1.23-2.22-2.39-3.29-3.62,1.89-1.81,3.78-3.45,5.84-5.02,2.22-1.64,4.52-3.29,6.91-4.77,1.07-.66,1.73-1.73,1.97-2.96,1.32,1.81,2.8,3.54,4.19,5.26Zm109.23-225.53c8.14,4.11,16.53,7.65,25.09,10.61-3.62,2.14-7.07,4.52-10.53,6.91-.33-.49-.74-.9-1.32-1.23-6.5-3.54-13-7.07-19.49-10.61,2.14-1.89,4.19-3.78,6.25-5.68Zm-29.77-81.26c-.66.41-.99.99-1.32,1.56-.74.99-1.15,2.3-.9,3.62,1.89,11.27,6.58,21.96,13.32,31.09-.33.16-.58.16-.82.41-42.93,30.76-80.28,68.68-110.46,111.94.74-14.64,1.97-29.28,2.88-43.92.33-5.26-7.9-5.26-8.22,0-.66,11.27-1.4,22.45-2.06,33.72-.49,7.73-1.15,15.46-1.32,23.19-.58.99-1.23,1.81-1.89,2.8-.58.9-.66,1.81-.49,2.63-.08.58-.08,1.15.08,1.73.99,3.54,1.97,6.99,2.96,10.53.33,2.06.66,4.19,1.07,6.17-.82.08-1.73.33-2.47,1.07-8.06,7.48-17.93,12.91-28.46,15.79,3.62-26.4,7.16-52.72,10.77-79.04,1.64-12.17,2.39-25.17,7.16-36.6,3.78-9.13,11.93-18.01,22.13-18.67-1.23,1.48-2.55,2.88-3.7,4.36-3.29,4.03,2.47,9.95,5.84,5.84,28.46-35.37,63.25-64.98,102.57-87.51,2.63-1.07,4.93-2.55,7.07-4.19.25.16.41.33.66.33.99.16,1.97.33,2.96.41-5.84,4.28-11.68,8.39-17.35,12.75Zm134.97-154.14c1.56,3.45,1.97,7.24,1.64,11.02-3.13-5.18-6.91-9.95-10.77-14.56-1.4-1.73-4.36-1.48-5.76,0-1.73,1.64-1.48,4.03,0,5.76,4.93,6,10.28,12.34,12.83,19.82,2.14,6.17,2.47,13.98-1.73,19.41q-.08.08-.08.16c-7.24-14.56-12.58-29.86-15.96-45.73.41-.08.74-.16,1.15-.41,3.13-1.89,5.84-4.19,8.22-6.91,4.69,2.55,8.31,6.42,10.45,11.43Zm-2.39-35.94c-.41-4.03-1.48-8.06-3.21-11.76-.9-2.06-3.78-2.63-5.59-1.56-2.06,1.15-2.47,3.54-1.56,5.59,5.18,11.1,1.15,24.35-8.8,31.17-.16-.82-.41-1.56-.49-2.3.25-.74.41-1.48.66-2.22,5.18-19.16,6.83-39.15,4.93-58.89,0-.25-.16-.33-.16-.49.66-.16,1.32-.49,1.97-.74,5.68,7.73,11.35,15.87,13.41,25.33,1.15,5.26.9,11.02-1.15,15.87Zm-87.35-56.18c-.41.08-.66.25-.99.49-5.35.25-10.61,1.23-15.87,3.29-13.74,5.26-26.07,12.83-40.55,16.61-14.23,3.7-28.87,4.69-43.51,3.45h-.08c-1.64-2.14-4.03-5.35-3.78-8.22.08-1.32,1.15-2.3,1.97-3.29.74-.9,1.4-1.81,2.06-2.8h4.36c6.91.08,13.9-1.64,19.9-5.1,1.89-1.07,2.71-3.7,1.56-5.59-1.15-1.89-3.62-2.71-5.59-1.56-.82.49-1.64.9-2.55,1.32-.41.16-.74.33-1.15.58h-.08l-.74.25c-1.64.66-3.37,1.07-5.1,1.48-.41.08-.82.16-1.32.16-.08.08-.66.16-.82.16-.82.08-1.56.16-2.39.16-1.48.08-2.88-.08-4.28-.16-.16-1.81-.49-3.62-.82-5.43-.33-1.32-.58-2.71-.41-4.11,0-.66.33-1.97.58-2.14.58-.41.99-.9,1.32-1.4,22.62-20.89,52.39-33.72,83.24-35.12,30.93-1.4,61.93,8.64,86.44,27.55.08.9.41,1.64.99,2.47.08.08.08.16.16.25,0,.08.08.08.08.16.16.33.41.66.58.9,0,.16.08.33.16.41.08.25.16.49.16.58.16.33.25.74.33,1.07,0,.16,0,.33.08.49v1.89l-.25.99-.25.99q-.08,0-.08.08c-.08.33-.33.58-.49.9-3.04-.99-6.66-.9-9.71.16-1.97.74-3.62,2.8-2.88,5.02.58,1.97,2.88,3.78,5.02,2.96.41-.16.9-.33,1.4-.41.25-.08.49-.08.74-.16h.16c.49-.08.99-.08,1.4,0h.41c.16,0,.25.08.41.08.41.08.9.25,1.32.41h.08c.25.08.49.25.74.41.16.08.25.16.41.25l.58.58c.08.08.25.25.33.41h.08c.08.25.25.41.33.58.08.25.16.41.25.58.16.41.25.82.33,1.32v.9c0,.08,0,.16-.08.25,0,.25-.08.41-.16.58v.08l-.25.49c-.49-.16-.99-.25-1.48-.25s-.99.08-1.56.33c-14.15,5.76-29.77.99-43.92-2.47-7.98-1.97-15.87-3.37-23.77-3.45-.99-.49-2.14-.66-3.04-.41Zm-78.22,68.35c0,.49,0,.9-.08,1.32,0,0-.08.9-.16,1.07-.08.33-.25.74-.33,1.15-.08.08-.16.33-.25.49,0,0-.16.25-.25.49-.16.25-.49.58-.74.82-.16.08-.25.16-.41.33-.25.08-.49.25-.74.41l-.08.08c-.08,0-.16,0-.33.08-.08,0-.16,0-.33.08h-.33q-.08-.08-.16-.08h-.08q-.08,0-.16-.08c-.16-.08-.25-.16-.41-.25l-.66-.66-.08-.08c-.08-.08-.08-.16-.16-.25-.25-.33-.41-.66-.58-.99-.74-1.32-1.32-2.8-2.06-4.11-1.4-2.71-3.37-5.26-6.09-6.58,1.73-7.57,3.78-15.05,5.84-22.54.99,2.3,2.06,4.52,3.29,6.74,1.81,5.02,3.62,10.03,5.43,15.05-.33.49-.49,1.15-.41,1.81.16,1.89.41,3.78.33,5.68Zm43.02-252.75c31.83-3.37,60.7,18.01,68.18,48.69-2.8-.25-5.59-.33-8.47-.25-.49-.99-1.07-1.89-1.73-2.8,0-.58-.08-1.23-.41-1.81-8.8-19.33-30.1-32.57-51.49-30.93-21.14,1.64-39.48,16.2-46.39,36.11-.25.58-.25,1.07-.25,1.56-.82.41-1.56.82-2.39,1.23-4.77,2.88-9.21,6.25-13.49,9.87.99-31.25,24.51-58.31,56.42-61.69Zm-79.86,171.41c2.71-4.52-4.44-8.55-7.16-4.03-6.25,10.53-8.06,22.87-5.92,34.63-10.2-7.9-14.39-21.3-10.28-33.72,5.02-15.46,19.25-25.5,31.91-34.54,4.36-2.96.33-10.2-4.03-7.16-9.87,6.99-20.15,14.64-27.55,24.26-2.55-9.29,7.32-18.59,13.49-24.35,8.72-8.06,18.59-14.8,29.2-20.07,4.77-2.39.66-9.46-4.03-7.16-8.72,4.36-16.94,9.71-24.51,15.87-1.4-10.28,11.35-21.3,17.44-27.72,7.65-8.14,15.79-16.53,24.84-23.28,1.07-.82,2.14-1.56,3.21-2.3,9.71-6.74,21.71-11.68,33.72-8.8,2.96.66,5.76,1.97,8.22,3.7,4.28,3.04,7.57,7.4,8.64,12.42-3.95-3.45-8.55-6.09-13.65-7.4-6-1.48-12.34-1.15-18.09.74-.33.08-.66.25-.9.33-2.63.9-5.1,2.14-7.4,3.7-1.81,1.32-2.71,3.62-1.56,5.68,1.07,1.81,3.78,2.8,5.68,1.48,4.52-3.13,9.87-4.77,15.38-4.52,1.56,0,3.13.16,4.77.58.66.16,1.32.33,1.97.66,4.03,1.32,7.57,3.62,10.45,6.74,0,.08.08.08.08.08.99,1.15,1.89,2.3,2.71,3.62.08.08.16.16.16.25.74.99,1.73,1.48,2.71,1.64.49,0,.9,0,1.32-.16.74-.08,1.48-.41,2.06-.9.99-.41,1.89-1.23,2.22-2.63.33-1.48.49-2.88.58-4.36.74-.16,1.4-.41,1.97-.99l4.52-4.61c.49-.33.74-.82.9-1.32.25-.49.33-.99.33-1.56s-.08-1.07-.33-1.56c-.16-.49-.41-.99-.9-1.32-.74-.74-1.81-1.32-2.88-1.23-1.07.08-2.14.41-2.88,1.23l-1.89,1.81c-1.15-3.78-3.21-7.32-5.76-10.36-2.71-3.13-6.09-5.68-9.87-7.48-9.38-4.36-19.66-3.95-29.28-.99,6.99-14.23,21.71-24.51,37.67-25.25,13.24-.66,25.74,5.1,34.63,14.48-1.97-.33-3.87-.49-5.84-.33-10.36.9-19.25,8.22-22.13,18.18,0,.16-.08.33-.08.41-.9,4.77,6.66,6.66,8.06,1.73.33-1.23.82-2.39,1.48-3.45,2.63-4.77,7.65-8.31,13.16-8.72,5.51-.33,10.61,2.14,13.98,6.25-2.14.41-4.28.99-6.42,1.64h-.08c-4.77,1.4-9.38,3.37-13.65,5.92-4.52,2.71-.49,9.87,4.11,7.16,8.22-4.85,17.03-7.32,25.91-7.57,3.04,0,6,.16,8.97.58,13.32,1.89,25.83,8.72,34.46,19.66-11.6-4.85-23.93-7.81-36.52-8.97-5.26-.49-5.26,7.73,0,8.22,13.9,1.23,27.64,5.1,40.22,11.35,11.02,5.51,26.98,14.06,25.99,28.54,0,.49.08.82.16,1.23-.58-.08-1.15-.25-1.73-.33-1.64-.08-3.29-.08-4.85,0-.08-.33-.16-.66-.33-.9-6-12.83-18.42-22.37-32.32-25-2.22-.41-4.44.66-5.02,2.88-.58,2.06.74,4.61,2.88,5.02,1.64.33,3.21.74,4.77,1.23.74.25,1.4.49,2.14.74.41.16.66.25,1.4.58,1.56.74,2.96,1.48,4.36,2.3.66.41,1.23.82,1.89,1.23.33.25.74.49,1.07.74.08.08.16.08.25.16,0,0,.08,0,.16.08,2.39,1.89,4.69,4.11,6.66,6.5.16.25.41.49.58.74.08.08.41.66.49.66.41.66.82,1.23,1.23,1.89.49.74.82,1.48,1.23,2.3-3.62.82-7.16,1.97-10.53,3.45-2.06.82-2.55,3.78-1.56,5.59,1.23,2.14,3.54,2.39,5.59,1.56,11.93-5.1,26.98-5.76,36.35,4.52,3.45,3.87,5.35,9.13,4.44,14.31-.9,4.69-3.78,9.46-8.47,11.19h-.08c-.08-9.71-5.26-19.25-13.74-24.26-1.97-1.15-4.52-.33-5.59,1.56-1.15,1.97-.41,4.44,1.48,5.59.58.33,1.07.66,1.64,1.07q.08,0,.16.08c.25.25.49.41.74.58.9.82,1.73,1.73,2.55,2.63.16.16.33.41.49.58,0,0,0,.08.08.16.33.58.74,1.07,1.07,1.64.33.49.58,1.07.9,1.64.16.33.25.58.41.9l.16.33c.41,1.07.74,2.22.99,3.37.16.58.25,1.23.41,1.81v.33c0,.25.08.49.08.74s-.08.58,0,.82c-6-4.93-13.16-8.47-21.06-9.54-2.22-.25-4.44.66-5.02,2.96-.49,1.97.74,4.69,2.96,5.02,13.9,1.89,24.84,11.43,28.79,24.43-2.06-1.07-4.36-1.73-6.83-1.97-1.73-4.03-4.03-7.73-6.99-10.94-1.48-1.56-4.36-1.64-5.84,0-1.56,1.64-1.56,4.11,0,5.76.41.41.74.82,1.15,1.32.16.16.33.41.49.58.08.08.08.16.16.25.66.82,1.23,1.73,1.81,2.71.58.9,1.15,1.89,1.64,2.88.25.49.41.99.66,1.48,0,.08.08.16.08.25.16.33.25.66.33.99.74,2.14,1.32,4.36,1.64,6.5v.25c0,.25.08.58.08.82.08.58.08,1.15.08,1.73.08,1.15,0,2.3-.08,3.54-.08,2.14,2.06,4.19,4.11,4.11,2.39-.08,3.95-1.81,4.11-4.11.25-3.04,0-6.09-.58-9.05,6.99,3.13,9.62,12.42,8.22,19.74-1.48,8.39-6.58,15.55-13.74,20.07-.08-.49-.08-.99-.16-1.48-.16-1.56-.41-3.04-.82-4.52.16-.08.25-.08.41-.16.25-.16.58-.41.82-.66.58-.49.9-1.15,1.07-1.81,1.07-2.55,2.06-5.02,3.04-7.57.33-.82,0-2.22-.41-3.04-.49-.9-1.48-1.73-2.55-1.97-.99-.16-2.14-.16-3.04.41-.33.25-.58.49-.9.66-.49.58-.9,1.15-1.07,1.89-.33.74-.58,1.56-.9,2.3-3.04-6.5-7.24-12.5-11.51-18.34.41-.82.82-1.64.99-2.55.58-3.13.08-6.33-1.56-9.05-.25-.58-.74-.9-1.07-1.32,1.48-2.39,2.39-5.02,2.55-7.9.25-3.13-.66-6.17-2.22-8.8.49-1.32.33-2.8-1.15-3.95-6.09-4.85-12.58-9.13-19.33-12.91,0-.66-.08-1.32-.41-1.89-2.14-4.11-4.19-8.31-6.33-12.42,7.81,5.02,16.45,8.64,26.57,9.62,5.26.49,5.26-7.73,0-8.22-13.57-1.32-25.17-9.29-35.2-18.09-.25-.25-.49-.49-.82-.74-.66-.58-1.32-1.15-1.97-1.81-11.02-10.03-21.14-20.97-33.89-28.87-4.52-2.8-8.55,4.36-4.03,7.16,12.58,7.81,23.03,19.08,34.13,29.03,3.45,6.83,6.83,13.57,10.28,20.32-19.58-8.8-41.12-13.24-62.84-12.26-24.59,1.07-48.44,8.97-69.09,22.13,1.64-4.44,3.29-8.88,4.93-13.24.25-.66.16-1.4,0-2.06,5.76-6.74,10.12-14.72,12.5-23.28.08-.25,0-.49.08-.74,3.87-2.14,7.73-4.19,11.68-6.33,4.69-2.47.58-9.62-4.11-7.16-11.76,6.42-23.52,12.75-35.29,19.08-4.69,2.55-.58,9.71,4.03,7.16,4.36-2.3,8.72-4.69,13-6.99-5.02,11.27-13.82,20.56-24.92,26.16-4.77,2.39-.66,9.46,4.03,7.16,2.47-1.23,4.77-2.63,6.99-4.19-1.15,2.96-2.22,5.92-3.29,8.88-.33.9-.16,1.81.25,2.63-3.62,2.8-7.07,5.68-10.36,8.72-.58.58-.9,1.07-1.07,1.64-2.14,2.55-2.96,5.76-2.71,9.29.16,2.14.66,4.19,1.07,6.33.33,1.73.66,3.7-.33,5.26-.99,1.56-2.47,2.88-3.54,4.44-1.23,1.97-1.89,4.44-1.81,6.83.25,4.28,2.47,7.9,4.93,11.27-1.64,1.89-3.21,3.87-4.77,5.84-9.95-13.24-10.69-32.41-2.22-46.64Zm37.67,116.3c-6.33,3.37-13.74,1.97-19.58-1.81-15.3-10.12-10.61-30.68-6.83-45.48,1.32-5.1-6.58-7.24-7.9-2.06-2.06,7.65-3.87,15.87-4.03,23.93-3.29-5.84-3.45-13.24-1.64-19.74,2.8-9.95,9.87-18.26,16.37-26.07,2.47.16,5.02.33,7.48.41-.08.16-.25.33-.25.49-1.81,6.91-3.54,13.74-5.26,20.64-1.73,6.5-3.7,13.08-3.87,19.74-.33,10.77,6.58,23.19,18.67,22.7,5.35-.16,5.35-8.39,0-8.22-8.88.33-10.77-9.62-10.2-16.86.33.58.66,1.15.9,1.81,1.32,2.55,2.47,5.35,4.69,7.32,2.8,2.47,6.66,3.54,10.2,2.14,2.63-.99,4.77-2.8,6.25-5.1.41,1.07.82,2.06,1.23,3.13.16.58.41,1.15.66,1.73,0,.16.16.33.25.49l1.56,3.78.99,2.55c0,.16,0,.41-.08.58-.58,5.92-4.28,11.1-9.62,13.9Zm157.1,59.47c-.66,1.07-.66,2.14-.41,3.04-33.97,18.42-66.79,38.9-98.29,61.28-.41-.41-.9-.66-1.4-.74-1.4-.16-2.71-.41-4.11-.58,6.5-8.72,9.21-20.4,8.06-31.58-2.47-23.03-17.03-42.03-22.78-64.07-1.4-5.1-9.29-2.96-7.98,2.14,4.44,16.94,14.06,31.83,19.41,48.44q-.08-.08-.16-.08c-.08-.08-.25-.16-.33-.33-.66-.58-1.32-1.15-1.97-1.81-.25-.33-.58-.66-.82-.99-.16-.16-.25-.25-.33-.41-.25-.33-.49-.74-.66-1.07-.33-.41-.49-.74-.74-1.15-.16-.41-.41-.82-.58-1.23-.08-.16-.08-.25-.16-.41v-.08c-.33-.82-.58-1.73-.82-2.55-.08-.41-.16-.82-.25-1.32,0-.25,0-.49-.08-.74,0-.25-.08-.49-.08-.74-.16-.58-.33-1.07-.58-1.48-.74-1.15-1.97-1.97-3.45-1.89-2.06.08-4.28,1.81-4.11,4.11.58,8.22,5.26,16.12,12.5,20.15.66.49,1.32.82,1.97,1.15.99.41,2.06.49,3.04.33.41,2.71.82,5.59.82,8.47-.25,0-.49-.08-.74,0-2.47.49-4.69.41-6.74-.08-10.28-2.39-15.87-15.71-17.27-25.5-2.14-14.39-.49-28.95-6.66-42.52-2.22-4.85-9.38-.74-7.16,4.03,4.36,9.54,4.36,20.07,4.93,30.43-8.39-3.13-10.2-15.22-10.2-22.95.08-11.02,1.48-22.29-3.78-32.41.9-.49,1.73-.9,2.55-1.56,2.39-1.81,4.36-4.03,5.92-6.42.25-.41.49-.74.74-1.15,2.47,6,4.85,12.09,7.32,18.18.82,2.06,2.63,3.54,5.02,2.88,1.89-.49,3.78-2.96,2.96-5.02-.41-.99-.82-1.97-1.23-2.96,6.91,3.37,15.05,4.36,22.37,1.73,8.39-3.04,14.8-9.79,23.61-11.84,8.8-1.97,17.93.33,25.09,5.76,4.19,3.21,8.31-4.03,4.11-7.16-13.65-10.2-31.01-9.21-44.91-.41-6.74,4.28-13.08,8.22-21.3,6.5-7.16-1.48-13-6.09-15.96-12.75-.16-.41-.49-.74-.74-.99l-2.71-6.74c0-.16.08-.41.08-.58-.08-1.4-.66-2.39-1.56-3.04-.74-1.97-1.56-3.95-2.3-5.84-1.64-4.52-3.21-8.97-4.85-13.41,4.85,4.19,10.12,7.73,15.96,10.45,2.06.9,4.44.49,5.59-1.56,1.07-1.81.49-4.69-1.48-5.59-11.84-5.43-21.71-14.56-28.13-25.74-.08-.33-.25-.66-.41-.99-1.07-3.04-2.14-6-3.29-9.05,7.32-.58,14.64-1.64,21.8-3.29,7.57-1.81,14.97-4.28,22.04-7.4,7.07-2.96,13.74-6.91,20.81-9.71,4.28-1.73,8.47-2.63,12.75-3.04.74,4.69,1.32,9.46,2.06,14.15.08.82.25,1.56.33,2.39.16,1.32.33,2.06.33,3.45-.08.33-.16.74-.25.99l-.25.25c-.08.08-.25.16-.41.25-.08,0-.16,0-.25.08-.25,0-.49.08-.66.08-.08.08-.25.08-.33.08-1.23,0-2.47,0-3.78-.16-2.22-.16-4.11,2.06-4.11,4.11,0,2.39,1.89,3.95,4.11,4.11,3.21.33,6.66.25,9.46-1.4,3.54-1.97,4.93-5.92,4.61-9.87-.16-1.64-.33-3.37-.66-5.1-.25-2.22-.66-4.52-.99-6.83-.33-2.22-.66-4.44-.99-6.66,19.74.99,39.4,10.61,59.22,7.32v.08c1.73,17.93.49,35.94-3.78,53.38-.25.99-.49,1.89-.74,2.88-.99.9-1.56,2.14-1.32,3.7,0,.25.08.49.08.74-1.48,5.02-3.21,10.12-5.68,14.72-3.37,6.5-8.14,12.01-15.05,15.05-4.85,2.14-.74,9.21,4.11,7.16,5.1-2.22,9.13-5.59,12.5-9.71,2.8-3.45,5.18-7.4,7.07-11.6,2.8,12.26,6.74,24.18,11.84,35.7,3.37,7.65,7.16,15.05,11.51,22.21.33.58.74.99,1.23,1.32-2.39,3.7-4.85,7.32-7.16,11.02Zm314.85,369.63c-3.54-8.72-7.16-17.44-10.77-26.24,8.14-4.85,17.68-7.07,27.8-5.92h.58c-.08,4.93-2.06,10.2-3.87,14.23-3.21,6.99-7.9,12.91-13.74,17.93Z"/>
    <path class="cls-1" d="m426.35,133.78c-.5-1.44-1.87-2.3-3.38-2.23-6.26.29-12.24-2.95-15.48-8.21-3.6-5.98-3.31-13.75-3.24-20.45,0-1.01-.65-1.87-1.51-2.38-1.3-2.16-5.4-2.09-6.19,1.15-.86,4.1-1.8,8.14-2.74,12.24-.72,3.31-1.51,6.91-3.67,9.65-3.17,4.03-9,5.98-13.97,4.39-1.66-.58-3.6-.07-4.32,1.73-.72,1.51,0,3.74,1.66,4.32.5.14.94.22,1.44.36.07.07.22.22.36.22,6.05,1.94,11.3,5.69,14.83,10.94,3.6,5.18,5.11,11.74,4.46,18-.22,1.73.94,3.46,2.74,3.74.94.14,1.87-.14,2.66-.72.86-.5,1.51-1.37,1.8-2.38,1.44-5.98,2.95-12.38,6.62-17.42,3.74-5.11,9.36-7.85,15.7-7.7,1.8.07,3.1-1.94,2.95-3.6-.07-.65-.36-1.22-.72-1.66Zm-22.82,8.42c-1.73,2.3-3.02,4.9-4.18,7.56-2.23-6.48-6.34-12.17-11.81-16.27,2.52-1.08,4.9-2.66,6.91-4.75,2.3-2.45,3.67-5.54,4.61-8.78.79,2.81,1.87,5.47,3.53,7.99,2.23,3.31,5.33,5.83,8.86,7.63-3.02,1.66-5.76,3.82-7.92,6.62Z"/>
    <path class="cls-1" d="m473.65,229.37c-.35-1-1.3-1.64-2.39-1.59-4.29.25-8.47-2.04-10.66-5.63-2.54-4.14-2.34-9.52-2.29-14.2.05-.7-.4-1.25-1-1.64-.95-1.45-3.79-1.4-4.29.85-.65,2.79-1.3,5.63-1.89,8.42-.55,2.34-1.1,4.78-2.59,6.73-2.14,2.79-6.23,4.14-9.62,2.99-1.2-.35-2.49,0-3.04,1.2-.45,1.05,0,2.64,1.2,3.04.3.1.65.15.95.25.1.05.15.1.25.15,4.19,1.3,7.82,3.89,10.32,7.53,2.44,3.64,3.54,8.12,3.04,12.46-.1,1.25.65,2.44,1.94,2.64.65.1,1.3-.15,1.79-.55.6-.3,1.05-.9,1.25-1.64,1-4.14,2.04-8.52,4.63-12.06,2.54-3.49,6.48-5.38,10.81-5.28,1.25.05,2.19-1.4,2.04-2.49-.05-.5-.2-.85-.45-1.15Zm-15.8,5.78c-1.25,1.64-2.14,3.39-2.89,5.23-1.59-4.44-4.39-8.42-8.22-11.21,1.79-.75,3.44-1.84,4.78-3.34,1.59-1.69,2.54-3.84,3.24-6.03.5,1.94,1.25,3.79,2.39,5.48,1.54,2.29,3.69,4.09,6.13,5.28-2.09,1.15-3.99,2.69-5.43,4.58Z"/>
  </g>
</svg>